<svg width="26" height="26" viewBox="0 0 26 26" fill="none" xmlns="http://www.w3.org/2000/svg">
<path fill-rule="evenodd" clip-rule="evenodd" d="M13 22.8956C18.8335 22.8956 23.5625 18.3159 23.5625 12.6665C23.5625 7.01719 18.8335 2.4375 13 2.4375C7.16649 2.4375 2.4375 7.01719 2.4375 12.6665C2.4375 15.7391 3.83637 18.4953 6.05099 20.3703V22.4403C6.05099 23.2493 6.87505 23.7919 7.60978 23.4667L9.9068 22.4499C10.8851 22.7397 11.9238 22.8956 13 22.8956Z" fill="url(#paint0_linear_84_1478)"/>
<path d="M10.4707 10.4921L7.40775 14.681C7.07935 15.1302 7.66995 15.6697 8.11959 15.3313L10.735 13.3631C11.0012 13.1627 11.3744 13.16 11.6437 13.3565L13.9697 15.0534C14.4158 15.3788 15.0534 15.2852 15.3781 14.8466L18.5904 10.5089C18.9235 10.0591 18.3284 9.51514 17.8781 9.85794L15.113 11.9629C14.8468 12.1656 14.4716 12.1694 14.201 11.972L11.8825 10.2806C11.4346 9.95387 10.7941 10.0498 10.4707 10.4921Z" fill="white"/>
<defs>
<linearGradient id="paint0_linear_84_1478" x1="13" y1="2.4375" x2="9.61076" y2="23.4474" gradientUnits="userSpaceOnUse">
<stop stop-color="#00B1FF"/>
<stop offset="1" stop-color="#006BFF"/>
</linearGradient>
</defs>
</svg>
